nRows=58
nColumns=19
inDegrees=yes
endheader
time	ground_force_vx	ground_force_vy	ground_force_vz	ground_force_px	ground_force_py	ground_force_pz	1_ground_force_vx	1_ground_force_vy	1_ground_force_vz	1_ground_force_px	1_ground_force_py	1_ground_force_pz	ground_torque_x	ground_torque_y	ground_torque_z	1_ground_torque_x	1_ground_torque_y	1_ground_torque_z
25.799	-0.324607	0.018034	-0.090169	0.300000012	0	0.609999999	-0.252472	0.036067	0.036067	0.300000012	0	0.2050000005	12663874560	-0.01082	-12663874560	16194.855469	0.036067	-16194.855469
25.8	-0.34264	0.090169	-0.14427	0.300000012	0	0.609999999	-0.216405	0.072135	0.036067	0.300000012	0	0.2050000005	11787.023438	-0.019476	-11787.023438	36.520096	0.044724	-36.520096
25.801	-0.324607	-0	-0.14427	0.300000012	0	0.609999999	-0.234438	0.072135	0.072135	0.300000012	0	0.2050000005	-0	-0.017312	0	8.930479	0.046888	-8.930479
25.802	-0.324607	0.018034	-0.126236	0.300000012	0	0.609999999	-0.270506	0.090169	0.036067	0.300000012	0	0.2050000005	1362851968	-0.013706	-1362851968	-0.139116	0.035346	0.139116
25.803	-0.324607	0.072135	-0.108202	0.300000012	0	0.609999999	-0.216404	0.090169	0.108202	0.300000012	0	0.2050000005	24018.757812	-0.010099	-24018.757812	8.422779	0.033182	-8.422779
25.804	-0.324607	0	-0.090169	0.300000012	0	0.609999999	-0.252472	0.072135	0.054101	0.300000012	0	0.2050000005	0	-0.013706	-0	65.241661	0.029575	-65.241661
25.805	-0.378708	0.018034	-0.126236	0.300000012	0	0.609999999	-0.270506	0.018034	0.018034	0.300000012	0	0.2050000005	2788010240	-0.011542	-2788010240	1500139.5	0.031739	-1500139.5
25.806	-0.324607	-0.036067	-0.090169	0.300000012	0	0.609999999	-0.252472	0.054101	0.054101	0.300000012	0	0.2050000005	-0	-0.009378	0	24.360184	0.033903	-24.360184
25.807	-0.306573	0	-0.126236	0.300000012	0	0.609999999	-0.252472	0.036067	0.018034	0.300000012	0	0.2050000005	0	-0.007214	-0	8838.232422	0.033903	-8838.232422
25.808	-0.360674	0.018034	-0.108202	0.300000012	0	0.609999999	-0.216404	0.036067	0.054101	0.300000012	0	0.2050000005	2840631552	-0.012984	-2840631552	12824.623047	0.029575	-12824.623047
25.809	-0.306573	0	-0.108202	0.300000012	0	0.609999999	-0.252472	0.14427	0.072135	0.300000012	0	0.2050000005	0	-0.022362	-0	-0.3707	0.03751	0.3707
25.81	-0.306573	0.054101	-0.108202	0.300000012	0	0.609999999	-0.252472	0.108202	0.090168	0.300000012	0	0.2050000005	851134.8125	-0.006492	-851134.8125	1.446851	0.033903	-1.446851
25.811	-0.324607	0.036067	-0.14427	0.300000012	0	0.609999999	-0.198371	0.018034	0.054101	0.300000012	0	0.2050000005	5430201	-0.004328	-5430201	2618574	0.031739	-2618574
25.812	-0.34264	0	-0.108202	0.300000012	0	0.609999999	-0.198371	0.018034	0.036067	0.300000012	0	0.2050000005	0	-0.002164	-0	3245.171875	0.039674	-3245.171875
25.813	-0.324607	0	-0.108202	0.300000012	0	0.609999999	-0.198371	0.072135	0.090169	0.300000012	0	0.2050000005	0	-0	-0	6.027055	0.047609	-6.027055
25.814	-0.34264	0.054101	-0.126236	0.300000012	0	0.609999999	-0.162303	0.036067	0.072135	0.300000012	0	0.2050000005	149750.265625	-0.012984	-149750.265625	5396.340332	0.051216	-5396.340332
25.815	-0.324607	0.162303	-0.108202	0.300000012	0	0.609999999	-0.198371	0.054101	0.036067	0.300000012	0	0.2050000005	49.574696	-0.014427	-49.574696	4.619513	0.04256	-4.619513
25.816	-0.306573	0.090168	-0.126236	0.300000012	0	0.609999999	-0.198371	0.14427	0.054101	0.300000012	0	0.2050000005	13869.495117	-0.008656	-13869.495117	-0.135972	0.043281	0.135972
25.817	-0.306573	0.036067	-0.126236	0.300000012	0	0.609999999	-0.180337	0.090168	0.108202	0.300000012	0	0.2050000005	24498424	-0.004328	-24498424	-1.168095	0.046166	1.168095
25.818	-0.342641	0.018034	-0.126236	0.300000012	0	0.609999999	-0.216404	0.072135	0.054101	0.300000012	0	0.2050000005	5576035328	-0.004328	-5576035328	-2.667608	0.049773	2.667608
25.819	-0.360674	0	-0.14427	0.300000012	0	0.609999999	-0.216404	0.036067	0.054101	0.300000012	0	0.2050000005	0	-0.002885	-0	3299.26001	0.049773	-3299.26001
25.82	-0.306573	0.018034	-0.126236	0.300000012	0	0.609999999	-0.234438	0.108202	0.090169	0.300000012	0	0.2050000005	2242447872	-0.004328	-2242447872	-0.265535	0.050494	0.265535
25.821	-0.306573	0.018034	-0.108202	0.300000012	0	0.609999999	-0.216405	0.090169	0.054101	0.300000012	0	0.2050000005	4924709376	-0.007935	-4924709376	-1.050472	0.041117	1.050472
25.822	-0.288539	0.018034	-0.162303	0.300000012	0	0.609999999	-0.180337	0.036067	0.054101	0.300000012	0	0.2050000005	6295618048	-0.009378	-6295618048	393.625366	0.045445	-393.625366
25.823	-0.306573	0.072135	-0.14427	0.300000012	0	0.609999999	-0.234438	0.054101	0.054101	0.300000012	0	0.2050000005	192390.515625	-0.015148	-192390.515625	-7.19446	0.047609	7.19446
25.824	-0.306573	0.108202	-0.126236	0.300000012	0	0.609999999	-0.198371	0.018034	0.036067	0.300000012	0	0.2050000005	3435.421875	-0.011542	-3435.421875	222769.3125	0.044002	-222769.3125
25.825	-0.288539	0.054101	-0.162303	0.300000012	0	0.609999999	-0.162303	0.090169	0.072135	0.300000012	0	0.2050000005	587624.8125	-0.009378	-587624.8125	1.731623	0.044002	-1.731623
25.826	-0.306573	0.036067	-0.14427	0.300000012	0	0.609999999	-0.216404	0.14427	0.090168	0.300000012	0	0.2050000005	73074592	-0.01082	-73074592	-0.208086	0.04256	0.208086
25.827	-0.324607	0.036067	-0.14427	0.300000012	0	0.609999999	-0.216404	0.108202	0.036067	0.300000012	0	0.2050000005	21357064	-0.012984	-21357064	-0.530698	0.050494	0.530698
25.828	-0.306573	-0	-0.14427	0.300000012	0	0.609999999	-0.216404	0.090169	0.036067	0.300000012	0	0.2050000005	-0	0.000721	0	-0.785274	0.043281	0.785274
25.829	-0.342641	0.054101	-0.126236	0.300000012	0	0.609999999	-0.216404	0.108202	0.072135	0.300000012	0	0.2050000005	628960.375	-0.002885	-628960.375	-0.468503	0.043281	0.468503
25.83	-0.342641	0.036067	-0.126236	0.300000012	0	0.609999999	-0.198371	0.14427	0.072135	0.300000012	0	0.2050000005	2731908	-0.010099	-2731908	-0.211709	0.045445	0.211709
25.831	-0.306573	0.036067	-0.162303	0.300000012	0	0.609999999	-0.198371	0.126236	0.072135	0.300000012	0	0.2050000005	4052544	-0.005771	-4052544	-0.712042	0.045445	0.712042
25.832	-0.324607	0.054101	-0.162303	0.300000012	0	0.609999999	-0.234438	0.072135	0.072135	0.300000012	0	0.2050000005	786165.1875	-0.007935	-786165.1875	35.62558	0.052658	-35.62558
25.833	-0.306573	-0.018034	-0.180337	0.300000012	0	0.609999999	-0.234438	0.036067	0.018034	0.300000012	0	0.2050000005	-0	-0.006492	0	677.072021	0.044724	-677.072021
25.834	-0.324607	0	-0.162303	0.300000012	0	0.609999999	-0.198371	0.108202	0	0.300000012	0	0.2050000005	0	-0.007935	-0	-0.60206	0.041117	0.60206
25.835	-0.342641	0.054101	-0.126236	0.300000012	0	0.609999999	-0.252472	0.090168	0.072135	0.300000012	0	0.2050000005	323267.9375	-0.012984	-323267.9375	7.568679	0.043281	-7.568679
25.836	-0.324607	0.036067	-0.126236	0.300000012	0	0.609999999	-0.252472	0.054101	0.090168	0.300000012	0	0.2050000005	27745754	-0.01082	-27745754	65.027611	0.039674	-65.027611
25.837	-0.324607	0	-0.14427	0.300000012	0	0.609999999	-0.234438	0.054101	0.072135	0.300000012	0	0.2050000005	0	0	-0	946.467468	0.038232	-946.467468
25.838	-0.306573	0.054101	-0.126236	0.300000012	0	0.609999999	-0.234438	0.072135	0.072135	0.300000012	0	0.2050000005	650496.5625	-0.005771	-650496.5625	6.497705	0.045445	-6.497705
25.839	-0.324607	0.054101	-0.090169	0.300000012	0	0.609999999	-0.216404	0.072135	0.054101	0.300000012	0	0.2050000005	819692.125	-0.01082	-819692.125	37.97184	0.046888	-37.97184
25.84	-0.324607	-0.018034	-0.108202	0.300000012	0	0.609999999	-0.234438	0.054101	0.054101	0.300000012	0	0.2050000005	-0	-0.007214	0	117.038589	0.049052	-117.038589
25.841	-0.306573	-0.036067	-0.108202	0.300000012	0	0.609999999	-0.270506	0.018034	0.108202	0.300000012	0	0.2050000005	-0	-0.009378	0	870427.25	0.041117	-870427.25
25.842	-0.324607	0.072135	-0.108202	0.300000012	0	0.609999999	-0.234438	0.054101	0.072135	0.300000012	0	0.2050000005	177749.09375	0	-177749.09375	946.468079	0.04833	-946.468079
25.843	-0.306573	0.054101	-0.108202	0.300000012	0	0.609999999	-0.234438	0.126236	0.054101	0.300000012	0	0.2050000005	1509338.5	0.002164	-1509338.5	-0.356363	0.049052	0.356363
25.844	-0.324607	0.090168	-0.14427	0.300000012	0	0.609999999	-0.270506	0.14427	0.072135	0.300000012	0	0.2050000005	19171.988281	-0.002885	-19171.988281	-0.233165	0.041117	0.233165
25.845	-0.34264	0.054101	-0.162303	0.300000012	0	0.609999999	-0.252472	0.072135	0.090168	0.300000012	0	0.2050000005	643443.6875	-0.001443	-643443.6875	7.724091	0.035346	-7.724091
25.846	-0.34264	-0.054101	-0.162303	0.300000012	0	0.609999999	-0.270506	0.018034	0.090169	0.300000012	0	0.2050000005	-0	-0.001443	0	81.768593	0.030297	-81.768593
25.847	-0.324607	-0.054101	-0.180337	0.300000012	0	0.609999999	-0.216404	0.018034	0.054101	0.300000012	0	0.2050000005	-0	-0.007214	0	5050.600098	0.032461	-5050.600098
25.848	-0.306573	-0	-0.180337	0.300000012	0	0.609999999	-0.234438	0.054101	0.036067	0.300000012	0	0.2050000005	-0	-0.005049	0	2.99186	0.033903	-2.99186
25.849	-0.324607	0.072135	-0.198371	0.300000012	0	0.609999999	-0.234438	0.090169	0.054101	0.300000012	0	0.2050000005	5113.201172	0.000721	-5113.201172	-0.073754	0.033182	0.073754
25.85	-0.324607	0.054101	-0.180337	0.300000012	0	0.609999999	-0.216404	0.108202	0.072135	0.300000012	0	0.2050000005	496633.28125	-0.007214	-496633.28125	-0.468504	0.038953	0.468504
25.851	-0.34264	0	-0.14427	0.300000012	0	0.609999999	-0.234438	0.072135	0.054101	0.300000012	0	0.2050000005	0	-0.007935	-0	2.102908	0.030297	-2.102908
25.852	-0.342641	0.018034	-0.162303	0.300000012	0	0.609999999	-0.216404	0.036067	0.072135	0.300000012	0	0.2050000005	4301103616	0	-4301103616	-29.990652	0.028854	29.990652
25.853	-0.324607	0.072135	-0.162303	0.300000012	0	0.609999999	-0.216404	0.126236	0.072135	0.300000012	0	0.2050000005	42545.160156	-0.002164	-42545.160156	-0.251631	0.040396	0.251631
25.854	-0.34264	0.036067	-0.162303	0.300000012	0	0.609999999	-0.198371	0.018034	0.036067	0.300000012	0	0.2050000005	5990197.5	-0.011542	-5990197.5	3175207.75	0.038232	-3175207.75
25.855	-0.324607	0.036067	-0.198371	0.300000012	0	0.609999999	-0.198371	0.072135	0.036067	0.300000012	0	0.2050000005	19251652	-0.013706	-19251652	-1.916491	0.033903	1.916491
25.856	-0.34264	0.036067	-0.162303	0.300000012	0	0.609999999	-0.234438	0.162303	0.036067	0.300000012	0	0.2050000005	5224880	-0.004328	-5224880	-0.024638	0.045445	0.024638
